<?xml version="1.0" encoding="UTF-8" standalone="no"?>
<svg xmlns="http://www.w3.org/2000/svg" xmlns:xlink="http://www.w3.org/1999/xlink" width="1267" zoomAndPan="magnify" viewBox="0 0 950.25 1405.500002" height="1874" preserveAspectRatio="xMidYMid meet" version="1.0"><defs><clipPath id="fc90f743d0"><path d="M 1 0.304688 L 949.5 0.304688 L 949.5 1404.695312 L 1 1404.695312 Z M 1 0.304688 " clip-rule="nonzero"/></clipPath><clipPath id="a8ea1c492a"><path d="M 949.355469 1.277344 L 947.992188 1404.695312 L -1.625 1403.773438 L -0.261719 0.355469 Z M 949.355469 1.277344 " clip-rule="nonzero"/></clipPath><clipPath id="f4419a23b2"><path d="M 949.355469 1.277344 L 947.992188 1404.695312 L 0.273438 1403.773438 L 1.636719 0.359375 Z M 949.355469 1.277344 " clip-rule="nonzero"/></clipPath><clipPath id="2d42aaad29"><path d="M 28 35.558594 L 878 35.558594 L 878 1338.777344 L 28 1338.777344 Z M 28 35.558594 " clip-rule="nonzero"/></clipPath></defs><g clip-path="url(#fc90f743d0)"><g clip-path="url(#a8ea1c492a)"><g clip-path="url(#f4419a23b2)"><path fill="#ffffff" d="M 949.355469 1.277344 L 947.992188 1404.695312 L 1.175781 1403.773438 L 2.539062 0.359375 Z M 949.355469 1.277344 " fill-opacity="1" fill-rule="nonzero"/></g></g></g><path fill="#f2d1a5" d="M 468.964844 531.585938 L 782.1875 712.484375 C 792.414062 718.390625 798.265625 728.53125 798.265625 740.34375 L 798.265625 1102.144531 C 798.265625 1113.957031 792.410156 1124.101562 782.1875 1130.007812 L 468.964844 1310.90625 C 458.738281 1316.8125 447.03125 1316.8125 436.804688 1310.90625 L 123.582031 1130.007812 C 113.359375 1124.101562 107.503906 1113.960938 107.503906 1102.148438 L 107.503906 740.34375 C 107.503906 728.53125 113.359375 718.390625 123.582031 712.484375 L 436.804688 531.585938 C 447.03125 525.679688 458.742188 525.679688 468.964844 531.585938 Z M 468.964844 531.585938 " fill-opacity="1" fill-rule="evenodd"/><path fill="#e3a76f" d="M 625.578125 622.035156 L 782.1875 712.484375 C 787.304688 715.4375 791.324219 719.449219 794.0625 724.199219 L 452.886719 921.246094 L 111.707031 724.199219 C 114.449219 719.449219 118.472656 715.4375 123.582031 712.484375 L 280.191406 622.035156 L 436.808594 531.582031 C 447.027344 525.683594 458.71875 525.679688 468.9375 531.566406 Z M 625.578125 622.035156 " fill-opacity="1" fill-rule="evenodd"/><path fill="#c48958" d="M 782.214844 712.5 C 787.316406 715.453125 791.328125 719.457031 794.0625 724.199219 L 452.886719 921.246094 L 452.886719 527.15625 C 458.355469 527.15625 463.832031 528.628906 468.933594 531.566406 Z M 625.578125 622.035156 L 782.1875 712.484375 L 625.578125 622.035156 L 468.9375 531.566406 L 468.933594 531.566406 Z M 625.578125 622.035156 " fill-opacity="1" fill-rule="evenodd"/><path fill="#c48958" d="M 111.707031 724.199219 C 108.964844 728.949219 107.503906 734.4375 107.503906 740.34375 L 107.503906 904.675781 L 378.394531 1061.128906 C 382.597656 1063.558594 387.175781 1063.984375 391.757812 1062.378906 C 396.339844 1060.769531 399.648438 1057.574219 401.414062 1053.054688 L 452.886719 921.246094 Z M 111.707031 724.199219 " fill-opacity="1" fill-rule="evenodd"/><path fill="#f2d1a5" d="M 452.886719 921.246094 L 111.707031 724.199219 L 61.464844 811.253906 C 57.035156 818.925781 59.679688 828.796875 67.351562 833.226562 L 380.671875 1014.183594 C 388.34375 1018.613281 398.210938 1015.96875 402.640625 1008.296875 Z M 452.886719 921.246094 " fill-opacity="1" fill-rule="evenodd"/><path fill="#ecba78" d="M 794.0625 724.199219 C 796.804688 728.949219 798.269531 734.4375 798.269531 740.34375 L 798.269531 1102.144531 C 798.269531 1113.957031 792.414062 1124.101562 782.1875 1130.007812 L 705.035156 1174.566406 L 468.890625 1310.949219 C 463.796875 1313.875 458.339844 1315.335938 452.886719 1315.335938 L 452.886719 921.246094 Z M 794.0625 724.199219 " fill-opacity="1" fill-rule="evenodd"/><path fill="#c48958" d="M 794.0625 724.199219 C 796.804688 728.949219 798.269531 734.4375 798.269531 740.34375 L 798.269531 904.675781 L 527.378906 1061.128906 C 523.175781 1063.558594 518.59375 1063.984375 514.015625 1062.378906 C 509.433594 1060.769531 506.125 1057.574219 504.359375 1053.054688 L 452.886719 921.246094 Z M 794.0625 724.199219 " fill-opacity="1" fill-rule="evenodd"/><path fill="#ecba78" d="M 452.886719 921.246094 L 794.0625 724.199219 L 844.308594 811.253906 C 848.734375 818.925781 846.089844 828.796875 838.421875 833.226562 L 525.097656 1014.183594 C 517.425781 1018.613281 507.558594 1015.96875 503.128906 1008.296875 Z M 452.886719 921.246094 " fill-opacity="1" fill-rule="evenodd"/><path fill="#8ac9fe" d="M 191.453125 245.398438 C 151.226562 261.875 122.699219 301.515625 122.699219 347.507812 C 122.699219 408.15625 172.300781 457.773438 232.929688 457.773438 L 672.839844 457.773438 C 733.472656 457.773438 783.070312 408.15625 783.070312 347.507812 C 783.070312 296.804688 748.398438 253.8125 701.597656 241.078125 C 692.972656 161.351562 625.476562 99.277344 543.480469 99.277344 C 524.644531 99.277344 506.566406 102.554688 489.800781 108.570312 C 458.097656 77.886719 414.917969 58.996094 367.324219 58.996094 C 270.027344 58.996094 191.152344 137.898438 191.152344 235.226562 C 191.152344 238.644531 191.261719 242.035156 191.453125 245.398438 Z M 191.453125 245.398438 " fill-opacity="1" fill-rule="evenodd"/><path fill="#60b7ff" d="M 733.261719 439.605469 C 763.210938 419.839844 783.074219 385.886719 783.074219 347.511719 C 783.074219 296.804688 748.402344 253.816406 701.601562 241.082031 C 692.972656 161.351562 625.480469 99.28125 543.484375 99.28125 C 524.648438 99.28125 506.570312 102.558594 489.800781 108.574219 C 458.101562 77.890625 414.917969 59.003906 367.324219 59.003906 C 310.613281 59.003906 260.164062 85.820312 227.941406 127.460938 C 257.726562 104.398438 295.097656 90.664062 335.675781 90.664062 C 383.273438 90.664062 426.453125 109.550781 458.15625 140.234375 C 474.921875 134.222656 493 130.941406 511.835938 130.941406 C 593.832031 130.941406 661.328125 193.015625 669.953125 272.742188 C 716.753906 285.480469 751.429688 328.46875 751.429688 379.175781 C 751.425781 401.441406 744.730469 422.21875 733.261719 439.605469 Z M 733.261719 439.605469 " fill-opacity="1" fill-rule="evenodd"/><g clip-path="url(#2d42aaad29)"><path fill="#000000" d="M 257.738281 253.828125 C 246.117188 253.828125 236.722656 244.417969 236.722656 232.804688 C 236.722656 160.753906 295.324219 102.132812 367.273438 102.132812 C 378.894531 102.132812 388.292969 111.566406 388.292969 123.15625 C 388.292969 134.769531 378.898438 144.183594 367.273438 144.183594 C 318.441406 144.183594 278.757812 183.929688 278.757812 232.804688 C 278.753906 244.417969 269.359375 253.828125 257.738281 253.828125 Z M 518.84375 991.085938 L 481.632812 926.503906 L 790.582031 748.046875 L 827.796875 812.628906 Z M 777.234375 1106.148438 L 777.234375 890.40625 L 521.691406 1037.996094 C 511.550781 1043.820312 498.816406 1040.355469 493.007812 1030.316406 L 473.84375 997.269531 L 473.84375 1281.34375 Z M 128.542969 890.378906 L 384.089844 1037.996094 C 388.910156 1040.800781 394.597656 1041.53125 400.035156 1040.085938 C 405.351562 1038.648438 410.050781 1035.125 412.769531 1030.316406 L 431.808594 997.269531 L 431.808594 1281.34375 L 128.542969 1106.148438 Z M 77.855469 812.628906 L 386.933594 991.085938 L 424.144531 926.503906 L 115.195312 748.046875 Z M 320.789062 687.382812 L 320.789062 620.378906 L 149.5625 719.328125 L 452.828125 894.558594 L 756.21875 719.328125 L 584.867188 620.378906 L 584.867188 687.382812 C 584.867188 698.996094 575.472656 708.394531 563.847656 708.394531 C 552.230469 708.394531 542.832031 698.996094 542.832031 687.382812 L 542.832031 596.125 L 452.828125 544.132812 L 362.824219 596.125 L 362.824219 687.382812 C 362.824219 698.996094 353.429688 708.394531 341.808594 708.394531 C 330.308594 708.394531 320.789062 698.996094 320.789062 687.382812 Z M 362.824219 476.363281 L 542.828125 476.363281 L 542.828125 547.574219 L 463.335938 501.667969 C 456.90625 497.921875 448.871094 497.921875 442.316406 501.667969 L 362.824219 547.574219 Z M 232.886719 434.328125 L 320.789062 434.328125 L 320.789062 382.929688 L 306.570312 401.246094 C 299.402344 410.421875 286.175781 412.019531 277.023438 404.882812 C 267.875 397.722656 266.265625 384.539062 273.4375 375.371094 L 325.238281 308.949219 C 329.320312 303.839844 335.378906 300.847656 341.804688 300.847656 C 348.355469 300.847656 354.414062 303.839844 358.371094 308.949219 L 410.296875 375.371094 C 417.464844 384.539062 415.859375 397.71875 406.585938 404.882812 C 397.4375 412.019531 384.332031 410.421875 377.164062 401.246094 L 362.824219 382.929688 L 362.824219 434.328125 L 542.828125 434.328125 L 542.828125 382.929688 L 528.609375 401.246094 C 521.441406 410.421875 508.210938 412.019531 499.0625 404.882812 C 489.914062 397.722656 488.304688 384.539062 495.476562 375.371094 L 547.277344 308.949219 C 551.355469 303.839844 557.417969 300.847656 563.84375 300.847656 C 570.398438 300.847656 576.453125 303.839844 580.410156 308.949219 L 632.335938 375.371094 C 639.503906 384.539062 637.773438 397.71875 628.75 404.882812 C 619.476562 412.019531 606.371094 410.398438 599.199219 401.246094 L 584.859375 382.929688 L 584.859375 434.328125 L 672.761719 434.328125 C 721.964844 434.328125 762.023438 394.28125 762.023438 345.074219 C 762.023438 304.929688 734.949219 269.507812 696.003906 258.945312 C 687.71875 256.660156 681.660156 249.511719 680.671875 240.914062 C 673.128906 170.769531 614.160156 117.875 543.441406 117.875 C 527.496094 117.875 511.792969 120.582031 496.835938 125.9375 C 489.292969 128.621094 480.886719 126.800781 475.199219 121.261719 C 446.152344 93.09375 407.824219 77.597656 367.273438 77.597656 C 281.722656 77.597656 212.117188 147.226562 212.117188 232.804688 C 212.117188 235.671875 212.242188 238.691406 212.488281 241.78125 C 212.980469 250.75 207.664062 259.019531 199.382812 262.4375 C 165.632812 276.289062 143.75 308.742188 143.75 345.074219 C 143.75 394.28125 183.683594 434.328125 232.886719 434.328125 Z M 874.777344 809.820312 L 816.421875 708.820312 C 814.566406 705.640625 811.96875 702.992188 808.757812 701.152344 L 584.863281 571.855469 L 584.863281 476.367188 L 672.765625 476.367188 C 745.210938 476.367188 804.058594 417.484375 804.058594 345.078125 C 804.058594 290.738281 770.308594 242.316406 720.488281 222.804688 C 704.785156 138.113281 630.980469 75.84375 543.449219 75.84375 C 526.886719 75.84375 510.6875 78.070312 494.988281 82.460938 C 459.257812 52.109375 414.503906 35.566406 367.277344 35.566406 C 259.59375 35.566406 171.695312 122.457031 170.085938 229.867188 C 128.175781 252.769531 101.71875 296.546875 101.71875 345.078125 C 101.71875 417.488281 160.566406 476.367188 232.890625 476.367188 L 320.792969 476.367188 L 320.792969 571.855469 L 97.019531 701.152344 C 93.804688 702.992188 91.085938 705.640625 89.355469 708.820312 L 31 809.820312 C 25.191406 819.863281 28.652344 832.738281 38.664062 838.535156 L 86.511719 866.128906 L 86.511719 1118.28125 C 86.511719 1125.800781 90.46875 1132.738281 97.019531 1136.488281 L 442.320312 1335.96875 C 445.65625 1337.839844 449.242188 1338.777344 452.828125 1338.777344 C 456.535156 1338.777344 460.121094 1337.839844 463.335938 1335.96875 L 808.757812 1136.488281 C 815.3125 1132.742188 819.269531 1125.800781 819.269531 1118.28125 L 819.269531 866.128906 L 866.992188 838.535156 C 877.125 832.734375 880.585938 819.859375 874.777344 809.820312 Z M 874.777344 809.820312 " fill-opacity="1" fill-rule="evenodd"/></g></svg>