<?xml version="1.0" encoding="UTF-8" standalone="no"?>
<svg xmlns="http://www.w3.org/2000/svg" xmlns:xlink="http://www.w3.org/1999/xlink" width="1714" zoomAndPan="magnify" viewBox="0 0 1285.5 1301.25" height="1735" preserveAspectRatio="xMidYMid meet" version="1.0"><defs><clipPath id="2f752651a2"><path d="M 1 0 L 1284.878906 0 L 1284.878906 1300.5 L 1 1300.5 Z M 1 0 " clip-rule="nonzero"/></clipPath><clipPath id="6a44c640ad"><path d="M 1284.871094 1.6875 L 1283.609375 1300.464844 L -1.171875 1299.214844 L 0.0898438 0.441406 Z M 1284.871094 1.6875 " clip-rule="nonzero"/></clipPath><clipPath id="f2eba1d408"><path d="M 1284.871094 1.6875 L 1283.609375 1300.464844 L 0.324219 1299.21875 L 1.585938 0.441406 Z M 1284.871094 1.6875 " clip-rule="nonzero"/></clipPath><clipPath id="30b4e37bc1"><path d="M 37.597656 33 L 1262.394531 33 L 1262.394531 1256.25 L 37.597656 1256.25 Z M 37.597656 33 " clip-rule="nonzero"/></clipPath></defs><g clip-path="url(#2f752651a2)"><g clip-path="url(#6a44c640ad)"><g clip-path="url(#f2eba1d408)"><path fill="#ffffff" d="M 1284.871094 1.6875 L 1283.609375 1300.464844 L 1.625 1299.21875 L 2.886719 0.441406 Z M 1284.871094 1.6875 " fill-opacity="1" fill-rule="nonzero"/></g></g></g><path fill="#02a9f4" d="M 1241.875 542.007812 L 1241.875 1154.214844 C 1241.875 1199.289062 1205.3125 1235.847656 1160.230469 1235.847656 L 1143.289062 1235.847656 L 772.449219 929.742188 L 1099.003906 660.160156 Z M 1241.875 542.007812 " fill-opacity="1" fill-rule="nonzero"/><path fill="#0377bc" d="M 1180.636719 592.613281 L 1180.636719 1154.214844 C 1180.5625 1185.777344 1162.273438 1214.472656 1133.699219 1227.886719 L 1143.289062 1235.847656 L 1160.230469 1235.847656 C 1205.3125 1235.847656 1241.875 1199.289062 1241.875 1154.214844 L 1241.875 542.007812 Z M 1180.636719 592.613281 " fill-opacity="1" fill-rule="nonzero"/><path fill="#00bcd4" d="M 1143.289062 1235.847656 L 156.703125 1235.847656 L 527.542969 929.742188 L 598.773438 870.765625 C 628.96875 845.78125 672.65625 845.78125 702.851562 870.765625 L 772.449219 929.742188 Z M 1143.289062 1235.847656 " fill-opacity="1" fill-rule="nonzero"/><path fill="#02a9f4" d="M 527.542969 929.742188 L 156.703125 1235.847656 L 139.761719 1235.847656 C 94.679688 1235.847656 58.117188 1199.289062 58.117188 1154.214844 L 58.117188 542.007812 L 200.984375 660.160156 L 372.839844 803.011719 Z M 527.542969 929.742188 " fill-opacity="1" fill-rule="nonzero"/><path fill="#3f51b5" d="M 842.867188 195.089844 L 457.125 195.089844 L 597.949219 72.652344 C 628.144531 47.667969 671.84375 47.667969 702.039062 72.652344 Z M 842.867188 195.089844 " fill-opacity="1" fill-rule="nonzero"/><path fill="#3f51b5" d="M 1241.875 542.007812 L 1099.003906 660.160156 L 1099.003906 417.726562 Z M 1241.875 542.007812 " fill-opacity="1" fill-rule="nonzero"/><path fill="#3f51b5" d="M 200.984375 417.726562 L 200.984375 660.160156 L 58.117188 542.007812 Z M 200.984375 417.726562 " fill-opacity="1" fill-rule="nonzero"/><path fill="#f5f5f5" d="M 1017.363281 195.089844 L 282.628906 195.089844 C 237.535156 195.089844 200.984375 231.632812 200.984375 276.71875 L 200.984375 660.160156 L 372.839844 803.011719 L 527.542969 929.742188 L 598.773438 870.765625 C 628.96875 845.78125 672.65625 845.78125 702.851562 870.765625 L 772.449219 929.742188 L 1099.003906 660.160156 L 1099.003906 276.71875 C 1099.003906 231.632812 1062.457031 195.089844 1017.363281 195.089844 Z M 868.789062 420.792969 L 731.636719 529.566406 L 854.089844 657.308594 C 861.488281 664.867188 865.464844 675.128906 865.078125 685.707031 C 864.691406 696.28125 859.980469 706.21875 852.046875 713.21875 C 837.050781 727.230469 813.980469 727.929688 798.171875 714.851562 L 649.996094 595.480469 L 500.402344 714.851562 C 484.480469 728.289062 460.988281 727.59375 445.902344 713.21875 C 437.964844 706.21875 433.257812 696.28125 432.871094 685.707031 C 432.484375 675.128906 436.460938 664.867188 443.859375 657.308594 L 566.324219 529.566406 L 429.980469 420.792969 C 415.355469 409.234375 406.0625 392.207031 404.257812 373.648438 C 402.4375 355.089844 408.269531 336.59375 420.390625 322.433594 C 433.90625 306.886719 453.3125 297.707031 473.90625 297.136719 C 494.496094 296.550781 514.390625 304.621094 528.765625 319.367188 L 649.996094 444.058594 L 770.003906 319.367188 C 784.382812 304.621094 804.273438 296.550781 824.867188 297.136719 C 845.457031 297.707031 864.867188 306.886719 878.382812 322.433594 C 890.5 336.59375 896.320312 355.089844 894.511719 373.648438 C 892.707031 392.207031 883.414062 409.234375 868.789062 420.792969 Z M 868.789062 420.792969 " fill-opacity="1" fill-rule="nonzero"/><path fill="#cfd8dc" d="M 1017.363281 195.089844 L 956.136719 195.089844 C 1001.21875 195.089844 1037.78125 231.632812 1037.78125 276.71875 L 1037.78125 660.160156 L 742.652344 905.042969 L 772.449219 929.742188 L 1099.003906 660.160156 L 1099.003906 276.71875 C 1099.003906 231.632812 1062.457031 195.089844 1017.363281 195.089844 Z M 1017.363281 195.089844 " fill-opacity="1" fill-rule="nonzero"/><path fill="#cfd8dc" d="M 536.726562 870.765625 L 495.902344 904.433594 L 527.542969 929.742188 L 598.773438 870.765625 C 605.199219 865.5 612.4375 861.300781 620.199219 858.3125 C 592.21875 846.640625 560.082031 851.4375 536.726562 870.765625 Z M 536.726562 870.765625 " fill-opacity="1" fill-rule="nonzero"/><path fill="#e91e63" d="M 868.789062 420.792969 L 731.636719 529.566406 L 854.089844 657.308594 C 861.488281 664.867188 865.464844 675.128906 865.078125 685.707031 C 864.691406 696.28125 859.980469 706.21875 852.046875 713.21875 C 837.050781 727.230469 813.980469 727.929688 798.171875 714.851562 L 649.996094 595.480469 L 500.402344 714.851562 C 484.480469 728.289062 460.988281 727.59375 445.902344 713.21875 C 437.964844 706.21875 433.257812 696.28125 432.871094 685.707031 C 432.484375 675.128906 436.460938 664.867188 443.859375 657.308594 L 566.324219 529.566406 L 429.980469 420.792969 C 415.355469 409.234375 406.0625 392.207031 404.257812 373.648438 C 402.4375 355.089844 408.269531 336.59375 420.390625 322.433594 C 433.90625 306.886719 453.3125 297.707031 473.90625 297.136719 C 494.496094 296.550781 514.390625 304.621094 528.765625 319.367188 L 649.996094 444.058594 L 770.003906 319.367188 C 784.382812 304.621094 804.273438 296.550781 824.867188 297.136719 C 845.457031 297.707031 864.867188 306.886719 878.382812 322.433594 C 890.5 336.59375 896.320312 355.089844 894.511719 373.648438 C 892.707031 392.207031 883.414062 409.234375 868.789062 420.792969 Z M 868.789062 420.792969 " fill-opacity="1" fill-rule="nonzero"/><g clip-path="url(#30b4e37bc1)"><path fill="#000000" d="M 1262.277344 538.332031 C 1262.351562 537.25 1262.351562 536.152344 1262.277344 535.070312 C 1262.277344 535.070312 1262.277344 534.046875 1262.277344 533.636719 C 1261.78125 532.789062 1261.230469 531.980469 1260.648438 531.195312 C 1260.648438 531.195312 1260.648438 529.566406 1259.425781 528.941406 L 1259.425781 527.722656 L 1119.410156 408.335938 L 1119.410156 276.71875 C 1119.410156 220.359375 1073.730469 174.6875 1017.363281 174.6875 L 850.414062 174.6875 L 715.09375 56.933594 C 677.265625 25.421875 622.316406 25.421875 584.484375 56.933594 L 449.578125 174.6875 L 282.628906 174.6875 C 226.261719 174.6875 180.582031 220.359375 180.582031 276.71875 L 180.582031 408.335938 L 44.652344 526.699219 L 44.652344 527.933594 C 44.652344 527.933594 44.652344 529.351562 43.429688 530.175781 C 42.832031 530.960938 42.296875 531.769531 41.800781 532.617188 L 41.800781 534.046875 C 41.722656 535.132812 41.722656 536.226562 41.800781 537.3125 C 40.128906 538.59375 38.746094 540.1875 37.714844 542.007812 L 37.714844 1154.214844 C 37.714844 1210.5625 83.40625 1256.25 139.761719 1256.25 L 1160.230469 1256.25 C 1216.585938 1256.25 1262.277344 1210.5625 1262.277344 1154.214844 L 1262.277344 542.007812 C 1262.429688 540.785156 1262.429688 539.554688 1262.277344 538.332031 Z M 1210.234375 542.007812 L 1119.410156 616.902344 L 1119.410156 462.628906 Z M 611.019531 88.359375 C 633.566406 69.898438 666.015625 69.898438 688.574219 88.359375 L 788.367188 174.6875 L 511.625 174.6875 Z M 282.628906 215.503906 L 1017.363281 215.503906 C 1051.183594 215.503906 1078.589844 242.90625 1078.589844 276.71875 L 1078.589844 650.570312 L 772.449219 903.214844 L 714.285156 855.046875 C 676.515625 823.761719 621.84375 823.761719 584.074219 855.046875 L 527.542969 903.214844 L 221.402344 650.570312 L 221.402344 276.71875 C 221.402344 242.90625 248.808594 215.503906 282.628906 215.503906 Z M 611.019531 886.472656 C 633.640625 867.789062 666.351562 867.789062 688.972656 886.472656 L 1086.546875 1215.433594 L 213.441406 1215.433594 Z M 180.582031 616.902344 L 89.757812 542.007812 L 180.582031 462.628906 Z M 78.535156 1154.214844 L 78.535156 585.476562 L 494.683594 929.742188 L 149.351562 1215.433594 L 139.761719 1215.433594 C 105.941406 1215.433594 78.535156 1188.03125 78.535156 1154.214844 Z M 1160.230469 1215.433594 L 1150.640625 1215.433594 L 805.308594 929.742188 L 1221.457031 585.476562 L 1221.457031 1154.214844 C 1221.457031 1188.03125 1194.050781 1215.433594 1160.230469 1215.433594 Z M 1160.230469 1215.433594 " fill-opacity="1" fill-rule="nonzero"/></g><path fill="#000000" d="M 418.558594 436.710938 L 537.335938 531.59375 L 429.78125 644.042969 C 418.445312 655.511719 412.378906 671.183594 413.039062 687.300781 C 413.761719 703.527344 421.148438 718.738281 433.457031 729.347656 C 456.105469 749.441406 489.910156 750.386719 513.65625 731.589844 L 649.996094 621.597656 L 786.945312 730.769531 C 810.714844 749.488281 844.460938 748.542969 867.15625 728.527344 C 879.453125 717.925781 886.839844 702.71875 887.5625 686.488281 C 887.835938 670.558594 881.570312 655.214844 870.210938 644.042969 L 762.65625 532.417969 L 881.433594 437.519531 C 900.441406 422.511719 912.527344 400.414062 914.90625 376.300781 C 917.445312 352.460938 910.058594 328.632812 894.5 310.386719 C 877.320312 290.371094 852.519531 278.515625 826.160156 277.691406 C 799.789062 276.882812 774.304688 287.195312 755.917969 306.101562 L 649.996094 414.464844 L 544.472656 305.082031 C 526.136719 286.175781 500.675781 275.875 474.339844 276.683594 C 448.019531 277.503906 423.242188 289.363281 406.101562 309.367188 C 390.542969 327.613281 383.15625 351.441406 385.695312 375.28125 C 387.863281 399.367188 399.722656 421.539062 418.558594 436.710938 Z M 437.121094 335.695312 C 446.8125 324.550781 460.726562 317.960938 475.5 317.535156 L 477.332031 317.535156 C 491.617188 317.511719 505.296875 323.253906 515.300781 333.453125 L 635.296875 458.132812 C 639.144531 462.132812 644.453125 464.386719 649.996094 464.386719 C 655.539062 464.386719 660.847656 462.132812 664.695312 458.132812 L 784.691406 333.652344 C 794.980469 322.730469 809.519531 316.851562 824.492188 317.535156 C 839.265625 317.960938 853.179688 324.550781 862.871094 335.695312 C 871.417969 345.535156 875.617188 358.414062 874.496094 371.40625 C 873.175781 384.597656 866.546875 396.679688 856.132812 404.875 L 720.003906 513.648438 C 715.445312 517.222656 712.628906 522.566406 712.242188 528.332031 C 711.929688 534.011719 714.011719 539.554688 717.960938 543.640625 L 840.414062 671.382812 C 843.976562 674.992188 845.882812 679.914062 845.679688 684.96875 C 845.496094 690.039062 843.214844 694.796875 839.390625 698.125 C 831.59375 705.261719 819.648438 705.261719 811.847656 698.125 L 662.242188 578.738281 C 654.828125 572.882812 644.351562 572.882812 636.929688 578.738281 L 487.332031 698.125 C 479.535156 705.261719 467.578125 705.261719 459.777344 698.125 C 455.964844 694.796875 453.6875 690.039062 453.488281 684.96875 C 453.300781 679.914062 455.207031 674.992188 458.757812 671.382812 L 581.222656 543.640625 C 585.171875 539.554688 587.238281 534.011719 586.925781 528.332031 C 586.550781 522.566406 583.726562 517.222656 579.179688 513.648438 L 443.050781 404.875 C 432.621094 396.679688 425.996094 384.597656 424.675781 371.40625 C 423.777344 358.304688 428.273438 345.398438 437.121094 335.695312 Z M 437.121094 335.695312 " fill-opacity="1" fill-rule="nonzero"/></svg>