<?xml version="1.0" encoding="UTF-8" standalone="no"?>
<svg xmlns="http://www.w3.org/2000/svg" xmlns:xlink="http://www.w3.org/1999/xlink" width="635" zoomAndPan="magnify" viewBox="0 0 476.25 164.249993" height="219" preserveAspectRatio="xMidYMid meet" version="1.0"><defs><g/><clipPath id="1c31c04d23"><path d="M 32 26 L 451 26 L 451 132 L 32 132 Z M 32 26 " clip-rule="nonzero"/></clipPath><clipPath id="000896f090"><path d="M 450.148438 27.28125 L 450.046875 131.707031 L 31.933594 131.300781 L 32.035156 26.875 Z M 450.148438 27.28125 " clip-rule="nonzero"/></clipPath><clipPath id="cfa8592ada"><path d="M 450.148438 27.28125 L 450.046875 131.707031 L 32.121094 131.300781 L 32.222656 26.875 Z M 450.148438 27.28125 " clip-rule="nonzero"/></clipPath></defs><g clip-path="url(#1c31c04d23)"><g clip-path="url(#000896f090)"><g clip-path="url(#cfa8592ada)"><path fill="#ffffff" d="M 450.148438 27.28125 L 450.046875 131.707031 L 31.933594 131.300781 L 32.035156 26.875 Z M 450.148438 27.28125 " fill-opacity="1" fill-rule="nonzero"/></g></g></g><g fill="#006cf6" fill-opacity="1"><g transform="translate(32.254051, 104.06698)"><g><path d="M 30.671875 -70.796875 C 34.441406 -70.796875 38.125 -70.25 41.71875 -69.15625 C 45.3125 -68.0625 47.976562 -66.976562 49.71875 -65.90625 L 52.25 -64.21875 L 45.84375 -51.578125 C 45.34375 -51.910156 44.640625 -52.34375 43.734375 -52.875 C 42.835938 -53.414062 41.15625 -54.132812 38.6875 -55.03125 C 36.21875 -55.9375 33.914062 -56.390625 31.78125 -56.390625 C 29.132812 -56.390625 27.09375 -55.828125 25.65625 -54.703125 C 24.226562 -53.578125 23.515625 -52.054688 23.515625 -50.140625 C 23.515625 -49.191406 23.847656 -48.304688 24.515625 -47.484375 C 25.191406 -46.671875 26.34375 -45.800781 27.96875 -44.875 C 29.601562 -43.945312 31.039062 -43.203125 32.28125 -42.640625 C 33.519531 -42.078125 35.429688 -41.238281 38.015625 -40.125 C 42.503906 -38.207031 46.335938 -35.601562 49.515625 -32.3125 C 52.691406 -29.03125 54.28125 -25.3125 54.28125 -21.15625 C 54.28125 -17.164062 53.5625 -13.679688 52.125 -10.703125 C 50.695312 -7.722656 48.734375 -5.390625 46.234375 -3.703125 C 43.734375 -2.023438 40.960938 -0.78125 37.921875 0.03125 C 34.890625 0.851562 31.601562 1.265625 28.0625 1.265625 C 25.03125 1.265625 22.050781 0.953125 19.125 0.328125 C 16.207031 -0.285156 13.765625 -1.054688 11.796875 -1.984375 C 9.828125 -2.910156 8.054688 -3.820312 6.484375 -4.71875 C 4.910156 -5.613281 3.757812 -6.375 3.03125 -7 L 1.9375 -7.921875 L 9.859375 -21.234375 C 10.535156 -20.671875 11.460938 -19.953125 12.640625 -19.078125 C 13.816406 -18.210938 15.910156 -17.050781 18.921875 -15.59375 C 21.929688 -14.132812 24.585938 -13.40625 26.890625 -13.40625 C 33.578125 -13.40625 36.921875 -15.679688 36.921875 -20.234375 C 36.921875 -21.179688 36.679688 -22.0625 36.203125 -22.875 C 35.722656 -23.695312 34.878906 -24.515625 33.671875 -25.328125 C 32.460938 -26.140625 31.394531 -26.785156 30.46875 -27.265625 C 29.539062 -27.742188 28.019531 -28.472656 25.90625 -29.453125 C 23.800781 -30.441406 22.242188 -31.1875 21.234375 -31.6875 C 17.023438 -33.769531 13.765625 -36.367188 11.453125 -39.484375 C 9.148438 -42.597656 8 -45.957031 8 -49.5625 C 8 -55.789062 10.300781 -60.882812 14.90625 -64.84375 C 19.519531 -68.8125 24.773438 -70.796875 30.671875 -70.796875 Z M 30.671875 -70.796875 "/></g></g></g><g fill="#006cf6" fill-opacity="1"><g transform="translate(88.893242, 104.06698)"><g><path d="M 48.796875 -19.546875 L 17.453125 -19.546875 C 17.453125 -16.515625 18.429688 -14.269531 20.390625 -12.8125 C 22.359375 -11.351562 24.492188 -10.625 26.796875 -10.625 C 29.210938 -10.625 31.125 -10.945312 32.53125 -11.59375 C 33.9375 -12.238281 35.539062 -13.515625 37.34375 -15.421875 L 48.125 -10.03125 C 43.625 -2.5 36.148438 1.265625 25.703125 1.265625 C 19.179688 1.265625 13.585938 -0.96875 8.921875 -5.4375 C 4.265625 -9.90625 1.9375 -15.285156 1.9375 -21.578125 C 1.9375 -27.867188 4.265625 -33.257812 8.921875 -37.75 C 13.585938 -42.25 19.179688 -44.5 25.703125 -44.5 C 32.554688 -44.5 38.132812 -42.515625 42.4375 -38.546875 C 46.738281 -34.585938 48.890625 -28.929688 48.890625 -21.578125 C 48.890625 -20.566406 48.859375 -19.890625 48.796875 -19.546875 Z M 17.875 -27.8125 L 34.296875 -27.8125 C 33.960938 -30.0625 33.078125 -31.789062 31.640625 -33 C 30.210938 -34.207031 28.375 -34.8125 26.125 -34.8125 C 23.65625 -34.8125 21.6875 -34.164062 20.21875 -32.875 C 18.757812 -31.582031 17.976562 -29.894531 17.875 -27.8125 Z M 17.875 -27.8125 "/></g></g></g><g fill="#006cf6" fill-opacity="1"><g transform="translate(139.716781, 104.06698)"><g><path d="M 5.0625 0 L 5.0625 -43.234375 L 19.96875 -43.234375 L 19.96875 -38.6875 L 20.140625 -38.6875 C 24.015625 -42.5625 28.144531 -44.5 32.53125 -44.5 C 34.664062 -44.5 36.785156 -44.21875 38.890625 -43.65625 C 41.003906 -43.09375 43.03125 -42.222656 44.96875 -41.046875 C 46.90625 -39.867188 48.476562 -38.195312 49.6875 -36.03125 C 50.894531 -33.863281 51.5 -31.347656 51.5 -28.484375 L 51.5 0 L 36.578125 0 L 36.578125 -24.4375 C 36.578125 -26.6875 35.859375 -28.65625 34.421875 -30.34375 C 32.992188 -32.03125 31.128906 -32.875 28.828125 -32.875 C 26.578125 -32.875 24.535156 -32 22.703125 -30.25 C 20.878906 -28.507812 19.96875 -26.570312 19.96875 -24.4375 L 19.96875 0 Z M 5.0625 0 "/></g></g></g><g fill="#006cf6" fill-opacity="1"><g transform="translate(195.428822, 104.06698)"><g><path d="M 8 -5.34375 C 3.957031 -9.757812 1.9375 -15.171875 1.9375 -21.578125 C 1.9375 -27.984375 3.957031 -33.40625 8 -37.84375 C 12.050781 -42.28125 17.195312 -44.5 23.4375 -44.5 C 29.164062 -44.5 33.882812 -42.703125 37.59375 -39.109375 L 37.59375 -72.484375 L 52.5 -72.484375 L 52.5 0 L 37.765625 0 L 37.765625 -4.890625 L 37.59375 -4.890625 C 33.882812 -0.785156 29.164062 1.265625 23.4375 1.265625 C 17.195312 1.265625 12.050781 -0.9375 8 -5.34375 Z M 20.6875 -28.90625 C 18.75 -27 17.78125 -24.554688 17.78125 -21.578125 C 17.78125 -18.597656 18.707031 -16.164062 20.5625 -14.28125 C 22.414062 -12.40625 24.859375 -11.46875 27.890625 -11.46875 C 30.816406 -11.46875 33.21875 -12.421875 35.09375 -14.328125 C 36.976562 -16.234375 37.921875 -18.648438 37.921875 -21.578125 C 37.921875 -24.554688 36.953125 -27 35.015625 -28.90625 C 33.078125 -30.820312 30.703125 -31.78125 27.890625 -31.78125 C 25.023438 -31.78125 22.625 -30.820312 20.6875 -28.90625 Z M 20.6875 -28.90625 "/></g></g><g transform="translate(252.995136, 104.06698)"><g><path d="M 8 -5.34375 C 3.957031 -9.757812 1.9375 -15.171875 1.9375 -21.578125 C 1.9375 -27.984375 3.957031 -33.40625 8 -37.84375 C 12.050781 -42.28125 17.195312 -44.5 23.4375 -44.5 C 29.164062 -44.5 33.882812 -42.703125 37.59375 -39.109375 L 37.59375 -43.234375 L 52.5 -43.234375 L 52.5 0 L 37.765625 0 L 37.765625 -4.890625 L 37.59375 -4.890625 C 33.882812 -0.785156 29.164062 1.265625 23.4375 1.265625 C 17.195312 1.265625 12.050781 -0.9375 8 -5.34375 Z M 20.6875 -28.90625 C 18.75 -27 17.78125 -24.554688 17.78125 -21.578125 C 17.78125 -18.597656 18.707031 -16.164062 20.5625 -14.28125 C 22.414062 -12.40625 24.859375 -11.46875 27.890625 -11.46875 C 30.816406 -11.46875 33.21875 -12.421875 35.09375 -14.328125 C 36.976562 -16.234375 37.921875 -18.648438 37.921875 -21.578125 C 37.921875 -24.554688 36.953125 -27 35.015625 -28.90625 C 33.078125 -30.820312 30.703125 -31.78125 27.890625 -31.78125 C 25.023438 -31.78125 22.625 -30.820312 20.6875 -28.90625 Z M 20.6875 -28.90625 "/></g></g><g transform="translate(310.56145, 104.06698)"><g><path d="M 23.859375 -44.5 C 26.328125 -44.5 28.769531 -44.21875 31.1875 -43.65625 C 33.601562 -43.09375 35.398438 -42.53125 36.578125 -41.96875 L 38.34375 -41.125 L 33.453125 -31.359375 C 30.085938 -33.148438 26.890625 -34.046875 23.859375 -34.046875 C 22.171875 -34.046875 20.972656 -33.863281 20.265625 -33.5 C 19.566406 -33.132812 19.21875 -32.445312 19.21875 -31.4375 C 19.21875 -31.207031 19.242188 -30.976562 19.296875 -30.75 C 19.359375 -30.53125 19.472656 -30.320312 19.640625 -30.125 C 19.804688 -29.925781 19.957031 -29.757812 20.09375 -29.625 C 20.238281 -29.488281 20.476562 -29.332031 20.8125 -29.15625 C 21.15625 -28.988281 21.421875 -28.863281 21.609375 -28.78125 C 21.804688 -28.695312 22.128906 -28.570312 22.578125 -28.40625 C 23.035156 -28.238281 23.375 -28.109375 23.59375 -28.015625 C 23.820312 -27.929688 24.203125 -27.804688 24.734375 -27.640625 C 25.265625 -27.472656 25.671875 -27.363281 25.953125 -27.3125 C 27.703125 -26.800781 29.222656 -26.234375 30.515625 -25.609375 C 31.804688 -24.992188 33.164062 -24.148438 34.59375 -23.078125 C 36.03125 -22.015625 37.140625 -20.671875 37.921875 -19.046875 C 38.710938 -17.421875 39.109375 -15.566406 39.109375 -13.484375 C 39.109375 -3.648438 32.28125 1.265625 18.625 1.265625 C 15.53125 1.265625 12.59375 0.789062 9.8125 -0.15625 C 7.03125 -1.113281 5.023438 -2.070312 3.796875 -3.03125 L 1.9375 -4.546875 L 8 -14.75 C 8.457031 -14.351562 9.050781 -13.890625 9.78125 -13.359375 C 10.507812 -12.828125 11.828125 -12.097656 13.734375 -11.171875 C 15.648438 -10.242188 17.304688 -9.78125 18.703125 -9.78125 C 21.796875 -9.78125 23.34375 -10.816406 23.34375 -12.890625 C 23.34375 -13.847656 22.945312 -14.59375 22.15625 -15.125 C 21.375 -15.65625 20.039062 -16.257812 18.15625 -16.9375 C 16.28125 -17.613281 14.804688 -18.234375 13.734375 -18.796875 C 11.035156 -20.203125 8.898438 -21.789062 7.328125 -23.5625 C 5.753906 -25.332031 4.96875 -27.675781 4.96875 -30.59375 C 4.96875 -34.976562 6.664062 -38.390625 10.0625 -40.828125 C 13.46875 -43.273438 18.066406 -44.5 23.859375 -44.5 Z M 23.859375 -44.5 "/></g></g><g transform="translate(352.029425, 104.06698)"><g><path d="M 7.578125 -43.234375 L 7.578125 -59.328125 L 22.5 -59.328125 L 22.5 -43.234375 L 31.609375 -43.234375 L 31.609375 -31.859375 L 22.5 -31.859375 L 22.5 -18.125 C 22.5 -14.132812 23.625 -12.140625 25.875 -12.140625 C 26.4375 -12.140625 27.023438 -12.25 27.640625 -12.46875 C 28.265625 -12.695312 28.742188 -12.921875 29.078125 -13.140625 L 29.578125 -13.484375 L 33.296875 -1.4375 C 30.085938 0.363281 26.429688 1.265625 22.328125 1.265625 C 19.523438 1.265625 17.109375 0.773438 15.078125 -0.203125 C 13.054688 -1.191406 11.523438 -2.515625 10.484375 -4.171875 C 9.453125 -5.828125 8.707031 -7.566406 8.25 -9.390625 C 7.800781 -11.222656 7.578125 -13.175781 7.578125 -15.25 L 7.578125 -31.859375 L 1.34375 -31.859375 L 1.34375 -43.234375 Z M 7.578125 -43.234375 "/></g></g></g><g fill="#006cf6" fill-opacity="1"><g transform="translate(385.321801, 104.06698)"><g><path d="M 8 -5.34375 C 3.957031 -9.757812 1.9375 -15.171875 1.9375 -21.578125 C 1.9375 -27.984375 3.957031 -33.40625 8 -37.84375 C 12.050781 -42.28125 17.195312 -44.5 23.4375 -44.5 C 29.164062 -44.5 33.882812 -42.703125 37.59375 -39.109375 L 37.59375 -43.234375 L 52.5 -43.234375 L 52.5 0 L 37.765625 0 L 37.765625 -4.890625 L 37.59375 -4.890625 C 33.882812 -0.785156 29.164062 1.265625 23.4375 1.265625 C 17.195312 1.265625 12.050781 -0.9375 8 -5.34375 Z M 20.6875 -28.90625 C 18.75 -27 17.78125 -24.554688 17.78125 -21.578125 C 17.78125 -18.597656 18.707031 -16.164062 20.5625 -14.28125 C 22.414062 -12.40625 24.859375 -11.46875 27.890625 -11.46875 C 30.816406 -11.46875 33.21875 -12.421875 35.09375 -14.328125 C 36.976562 -16.234375 37.921875 -18.648438 37.921875 -21.578125 C 37.921875 -24.554688 36.953125 -27 35.015625 -28.90625 C 33.078125 -30.820312 30.703125 -31.78125 27.890625 -31.78125 C 25.023438 -31.78125 22.625 -30.820312 20.6875 -28.90625 Z M 20.6875 -28.90625 "/></g></g></g></svg>